<?xml version="1.0" encoding="UTF-8" standalone="no"?>
<svg width="276.754mm" height="90.7521mm"
 xmlns="http://www.w3.org/2000/svg" xmlns:xlink="http://www.w3.org/1999/xlink" version="1.1">
<title>GLP1 Indications</title>
<desc>Rendered by Tableau</desc>
<defs>
<clipPath id="clipPath1">
<path vector-effect="none" fill-rule="evenodd" d="M0,43 L1046,43 L1046,318 L0,318 L0,43"/>
</clipPath>
<clipPath id="clipPath2">
<path vector-effect="none" fill-rule="evenodd" d="M159,42 L1047,42 L1047,64 L159,64 L159,42"/>
</clipPath>
<clipPath id="clipPath3">
<path vector-effect="none" fill-rule="evenodd" d="M159,262 L1047,262 L1047,319 L159,319 L159,262"/>
</clipPath>
<clipPath id="clipPath4">
<path vector-effect="none" fill-rule="evenodd" d="M-1,62 L161,62 L161,264 L-1,264 L-1,62"/>
</clipPath>
<clipPath id="clipPath5">
<path vector-effect="none" fill-rule="evenodd" d="M160,63 L1047,63 L1047,264 L160,264 L160,63"/>
</clipPath>
<clipPath id="clipPath6">
<path vector-effect="none" fill-rule="evenodd" d="M160,63 L1047,63 L1047,264 L160,264 L160,63"/>
</clipPath>
<clipPath id="clipPath7">
<path vector-effect="none" fill-rule="evenodd" d="M160,63 L1047,63 L1047,264 L160,264 L160,63"/>
</clipPath>
<clipPath id="clipPath8">
<path vector-effect="none" fill-rule="evenodd" d="M160,63 L1047,63 L1047,264 L160,264 L160,63"/>
</clipPath>
<clipPath id="clipPath9">
<path vector-effect="none" fill-rule="evenodd" d="M160,63 L1047,63 L1047,264 L160,264 L160,63"/>
</clipPath>
<clipPath id="clipPath10">
<path vector-effect="none" fill-rule="evenodd" d="M160,63 L1047,63 L1047,264 L160,264 L160,63"/>
</clipPath>
<clipPath id="clipPath11">
<path vector-effect="none" fill-rule="evenodd" d="M160,63 L1047,63 L1047,264 L160,264 L160,63"/>
</clipPath>
<clipPath id="clipPath12">
<path vector-effect="none" fill-rule="evenodd" d="M160,63 L1047,63 L1047,264 L160,264 L160,63"/>
</clipPath>
<clipPath id="clipPath13">
<path vector-effect="none" fill-rule="evenodd" d="M160,63 L1046,63 L1046,263 L160,263 L160,63"/>
</clipPath>
<clipPath id="clipPath14">
<path vector-effect="none" fill-rule="evenodd" d="M160,63 L1047,63 L1047,264 L160,264 L160,63"/>
</clipPath>
<clipPath id="clipPath15">
<path vector-effect="none" fill-rule="evenodd" d="M160,63 L1046,63 L1046,263 L160,263 L160,63"/>
</clipPath>
<clipPath id="clipPath16">
<path vector-effect="none" fill-rule="evenodd" d="M160,63 L1047,63 L1047,264 L160,264 L160,63"/>
</clipPath>
<clipPath id="clipPath17">
<path vector-effect="none" fill-rule="evenodd" d="M160,63 L1046,63 L1046,263 L160,263 L160,63"/>
</clipPath>
<clipPath id="clipPath18">
<path vector-effect="none" fill-rule="evenodd" d="M160,63 L1047,63 L1047,264 L160,264 L160,63"/>
</clipPath>
<clipPath id="clipPath19">
<path vector-effect="none" fill-rule="evenodd" d="M160,63 L1047,63 L1047,264 L160,264 L160,63"/>
</clipPath>
<clipPath id="clipPath20">
<path vector-effect="none" fill-rule="evenodd" d="M160,63 L1046,63 L1046,263 L160,263 L160,63"/>
</clipPath>
<clipPath id="clipPath21">
<path vector-effect="none" fill-rule="evenodd" d="M160,63 L1047,63 L1047,264 L160,264 L160,63"/>
</clipPath>
<clipPath id="clipPath22">
<path vector-effect="none" fill-rule="evenodd" d="M160,63 L1046,63 L1046,263 L160,263 L160,63"/>
</clipPath>
<clipPath id="clipPath23">
<path vector-effect="none" fill-rule="evenodd" d="M160,63 L1047,63 L1047,264 L160,264 L160,63"/>
</clipPath>
<clipPath id="clipPath24">
<path vector-effect="none" fill-rule="evenodd" d="M160,63 L1046,63 L1046,263 L160,263 L160,63"/>
</clipPath>
<clipPath id="clipPath25">
<path vector-effect="none" fill-rule="evenodd" d="M160,63 L1047,63 L1047,264 L160,264 L160,63"/>
</clipPath>
<clipPath id="clipPath26">
<path vector-effect="none" fill-rule="evenodd" d="M160,63 L1047,63 L1047,264 L160,264 L160,63"/>
</clipPath>
<clipPath id="clipPath27">
<path vector-effect="none" fill-rule="evenodd" d="M160,63 L1046,63 L1046,263 L160,263 L160,63"/>
</clipPath>
<clipPath id="clipPath28">
<path vector-effect="none" fill-rule="evenodd" d="M160,63 L1047,63 L1047,264 L160,264 L160,63"/>
</clipPath>
<clipPath id="clipPath29">
<path vector-effect="none" fill-rule="evenodd" d="M160,63 L1046,63 L1046,263 L160,263 L160,63"/>
</clipPath>
<clipPath id="clipPath30">
<path vector-effect="none" fill-rule="evenodd" d="M160,63 L1047,63 L1047,264 L160,264 L160,63"/>
</clipPath>
<clipPath id="clipPath31">
<path vector-effect="none" fill-rule="evenodd" d="M160,63 L1046,63 L1046,263 L160,263 L160,63"/>
</clipPath>
<clipPath id="clipPath32">
<path vector-effect="none" fill-rule="evenodd" d="M160,63 L1047,63 L1047,264 L160,264 L160,63"/>
</clipPath>
<clipPath id="clipPath33">
<path vector-effect="none" fill-rule="evenodd" d="M160,63 L1047,63 L1047,264 L160,264 L160,63"/>
</clipPath>
<clipPath id="clipPath34">
<path vector-effect="none" fill-rule="evenodd" d="M160,63 L1046,63 L1046,263 L160,263 L160,63"/>
</clipPath>
<clipPath id="clipPath35">
<path vector-effect="none" fill-rule="evenodd" d="M160,63 L1047,63 L1047,264 L160,264 L160,63"/>
</clipPath>
<clipPath id="clipPath36">
<path vector-effect="none" fill-rule="evenodd" d="M160,63 L1046,63 L1046,263 L160,263 L160,63"/>
</clipPath>
<clipPath id="clipPath37">
<path vector-effect="none" fill-rule="evenodd" d="M160,63 L1047,63 L1047,264 L160,264 L160,63"/>
</clipPath>
<clipPath id="clipPath38">
<path vector-effect="none" fill-rule="evenodd" d="M160,63 L1046,63 L1046,263 L160,263 L160,63"/>
</clipPath>
<clipPath id="clipPath39">
<path vector-effect="none" fill-rule="evenodd" d="M160,63 L1047,63 L1047,264 L160,264 L160,63"/>
</clipPath>
<clipPath id="clipPath40">
<path vector-effect="none" fill-rule="evenodd" d="M160,63 L1047,63 L1047,264 L160,264 L160,63"/>
</clipPath>
<clipPath id="clipPath41">
<path vector-effect="none" fill-rule="evenodd" d="M160,63 L1046,63 L1046,263 L160,263 L160,63"/>
</clipPath>
<clipPath id="clipPath42">
<path vector-effect="none" fill-rule="evenodd" d="M160,63 L1047,63 L1047,264 L160,264 L160,63"/>
</clipPath>
<clipPath id="clipPath43">
<path vector-effect="none" fill-rule="evenodd" d="M160,63 L1046,63 L1046,263 L160,263 L160,63"/>
</clipPath>
<clipPath id="clipPath44">
<path vector-effect="none" fill-rule="evenodd" d="M160,63 L1047,63 L1047,264 L160,264 L160,63"/>
</clipPath>
<clipPath id="clipPath45">
<path vector-effect="none" fill-rule="evenodd" d="M160,63 L1046,63 L1046,263 L160,263 L160,63"/>
</clipPath>
<clipPath id="clipPath46">
<path vector-effect="none" fill-rule="evenodd" d="M160,63 L1047,63 L1047,264 L160,264 L160,63"/>
</clipPath>
<clipPath id="clipPath47">
<path vector-effect="none" fill-rule="evenodd" d="M160,63 L1047,63 L1047,264 L160,264 L160,63"/>
</clipPath>
<clipPath id="clipPath48">
<path vector-effect="none" fill-rule="evenodd" d="M160,63 L1046,63 L1046,263 L160,263 L160,63"/>
</clipPath>
<clipPath id="clipPath49">
<path vector-effect="none" fill-rule="evenodd" d="M160,63 L1047,63 L1047,264 L160,264 L160,63"/>
</clipPath>
<clipPath id="clipPath50">
<path vector-effect="none" fill-rule="evenodd" d="M160,63 L1046,63 L1046,263 L160,263 L160,63"/>
</clipPath>
<clipPath id="clipPath51">
<path vector-effect="none" fill-rule="evenodd" d="M160,63 L1047,63 L1047,264 L160,264 L160,63"/>
</clipPath>
<clipPath id="clipPath52">
<path vector-effect="none" fill-rule="evenodd" d="M160,63 L1046,63 L1046,263 L160,263 L160,63"/>
</clipPath>
<clipPath id="clipPath53">
<path vector-effect="none" fill-rule="evenodd" d="M160,63 L1047,63 L1047,264 L160,264 L160,63"/>
</clipPath>
<clipPath id="clipPath54">
<path vector-effect="none" fill-rule="evenodd" d="M160,63 L1047,63 L1047,264 L160,264 L160,63"/>
</clipPath>
<clipPath id="clipPath55">
<path vector-effect="none" fill-rule="evenodd" d="M160,63 L1047,63 L1047,264 L160,264 L160,63"/>
</clipPath>
<clipPath id="clipPath56">
<path vector-effect="none" fill-rule="evenodd" d="M160,63 L1047,63 L1047,264 L160,264 L160,63"/>
</clipPath>
</defs>
<g fill="none" stroke="black" stroke-width="1" fill-rule="evenodd" stroke-linecap="square" stroke-linejoin="bevel" >

<g fill="#ffffff" fill-opacity="1" stroke="none" transform="matrix(1,0,0,1,0,0)"
font-family="Benton Sans Book" font-size="16" font-weight="400" font-style="normal" 
>
<rect x="0" y="0" width="1046" height="343"/>
</g>

<g fill="#ffffff" fill-opacity="1" stroke="none" transform="matrix(1,0,0,1,0,0)"
font-family="Benton Sans Book" font-size="16" font-weight="400" font-style="normal" 
>
<rect x="0" y="43" width="1046" height="275"/>
</g>

<g clip-path="url(#clipPath1)"><g fill="none" stroke="#000000" stroke-opacity="1" stroke-width="1" stroke-linecap="square" stroke-linejoin="bevel" transform="matrix(1,0,0,1,0,0)"
font-family="Benton Sans Book" font-size="16" font-weight="400" font-style="normal" 
>
</g>
</g>

<g clip-path="url(#clipPath1)"><g fill="none" stroke="#333333" stroke-opacity="1" stroke-width="1" stroke-linecap="square" stroke-linejoin="bevel" transform="matrix(1,0,0,1,0,0)"
font-family="Arial" font-size="12" font-weight="400" font-style="normal" 
>
<text fill="#333333" fill-opacity="1" stroke="none" xml:space="preserve" x="121.016" y="60" font-family="Arial" font-size="12" font-weight="400" font-style="normal" 
 >Indi Pt</text>
</g>
</g>

<g fill="none" stroke="#333333" stroke-opacity="1" stroke-width="1" stroke-linecap="square" stroke-linejoin="bevel" transform="matrix(1,0,0,1,0,0)"
font-family="Arial" font-size="12" font-weight="400" font-style="normal" 
>
</g>

<g clip-path="url(#clipPath2)"><g fill="none" stroke="#333333" stroke-opacity="1" stroke-width="1" stroke-linecap="square" stroke-linejoin="bevel" transform="matrix(1,0,0,1,160,43)"
font-family="Arial" font-size="12" font-weight="400" font-style="normal" 
>
</g>
</g>

<g fill="none" stroke="#333333" stroke-opacity="1" stroke-width="1" stroke-linecap="square" stroke-linejoin="bevel" transform="matrix(1,0,0,1,160,43)"
font-family="Arial" font-size="12" font-weight="400" font-style="normal" 
>
</g>

<g clip-path="url(#clipPath3)"><g fill="none" stroke="#333333" stroke-opacity="1" stroke-width="1" stroke-linecap="square" stroke-linejoin="bevel" transform="matrix(1,0,0,1,160,263)"
font-family="Arial" font-size="12" font-weight="400" font-style="normal" 
>
</g>
</g>

<g clip-path="url(#clipPath3)"><g fill="none" stroke="#f5f5f5" stroke-opacity="1" stroke-width="1" stroke-linecap="butt" stroke-linejoin="bevel" transform="matrix(1,0,0,1,160,263)"
font-family="Arial" font-size="12" font-weight="400" font-style="normal" 
>
<polyline fill="none" vector-effect="none" points="0,0 0,5 " />
<polyline fill="none" vector-effect="none" points="76,0 76,5 " />
<polyline fill="none" vector-effect="none" points="153,0 153,5 " />
<polyline fill="none" vector-effect="none" points="229,0 229,5 " />
<polyline fill="none" vector-effect="none" points="305,0 305,5 " />
<polyline fill="none" vector-effect="none" points="382,0 382,5 " />
<polyline fill="none" vector-effect="none" points="458,0 458,5 " />
<polyline fill="none" vector-effect="none" points="534,0 534,5 " />
<polyline fill="none" vector-effect="none" points="611,0 611,5 " />
<polyline fill="none" vector-effect="none" points="687,0 687,5 " />
<polyline fill="none" vector-effect="none" points="763,0 763,5 " />
<polyline fill="none" vector-effect="none" points="840,0 840,5 " />
</g>
</g>

<g clip-path="url(#clipPath3)"><g fill="none" stroke="#666666" stroke-opacity="1" stroke-width="1" stroke-linecap="square" stroke-linejoin="bevel" transform="matrix(1,0,0,1,160,263)"
font-family="Arial" font-size="12" font-weight="400" font-style="normal" 
>
<text fill="#666666" fill-opacity="1" stroke="none" xml:space="preserve" x="1.65625" y="18" font-family="Arial" font-size="12" font-weight="400" font-style="normal" 
 >0K</text>
</g>
</g>

<g clip-path="url(#clipPath3)"><g fill="none" stroke="#666666" stroke-opacity="1" stroke-width="1" stroke-linecap="square" stroke-linejoin="bevel" transform="matrix(1,0,0,1,160,263)"
font-family="Arial" font-size="12" font-weight="400" font-style="normal" 
>
<text fill="#666666" fill-opacity="1" stroke="none" xml:space="preserve" x="68.6563" y="18" font-family="Arial" font-size="12" font-weight="400" font-style="normal" 
 >5K</text>
</g>
</g>

<g clip-path="url(#clipPath3)"><g fill="none" stroke="#666666" stroke-opacity="1" stroke-width="1" stroke-linecap="square" stroke-linejoin="bevel" transform="matrix(1,0,0,1,160,263)"
font-family="Arial" font-size="12" font-weight="400" font-style="normal" 
>
<text fill="#666666" fill-opacity="1" stroke="none" xml:space="preserve" x="142.328" y="18" font-family="Arial" font-size="12" font-weight="400" font-style="normal" 
 >10K</text>
</g>
</g>

<g clip-path="url(#clipPath3)"><g fill="none" stroke="#666666" stroke-opacity="1" stroke-width="1" stroke-linecap="square" stroke-linejoin="bevel" transform="matrix(1,0,0,1,160,263)"
font-family="Arial" font-size="12" font-weight="400" font-style="normal" 
>
<text fill="#666666" fill-opacity="1" stroke="none" xml:space="preserve" x="218.328" y="18" font-family="Arial" font-size="12" font-weight="400" font-style="normal" 
 >15K</text>
</g>
</g>

<g clip-path="url(#clipPath3)"><g fill="none" stroke="#666666" stroke-opacity="1" stroke-width="1" stroke-linecap="square" stroke-linejoin="bevel" transform="matrix(1,0,0,1,160,263)"
font-family="Arial" font-size="12" font-weight="400" font-style="normal" 
>
<text fill="#666666" fill-opacity="1" stroke="none" xml:space="preserve" x="294.328" y="18" font-family="Arial" font-size="12" font-weight="400" font-style="normal" 
 >20K</text>
</g>
</g>

<g clip-path="url(#clipPath3)"><g fill="none" stroke="#666666" stroke-opacity="1" stroke-width="1" stroke-linecap="square" stroke-linejoin="bevel" transform="matrix(1,0,0,1,160,263)"
font-family="Arial" font-size="12" font-weight="400" font-style="normal" 
>
<text fill="#666666" fill-opacity="1" stroke="none" xml:space="preserve" x="371.328" y="18" font-family="Arial" font-size="12" font-weight="400" font-style="normal" 
 >25K</text>
</g>
</g>

<g clip-path="url(#clipPath3)"><g fill="none" stroke="#666666" stroke-opacity="1" stroke-width="1" stroke-linecap="square" stroke-linejoin="bevel" transform="matrix(1,0,0,1,160,263)"
font-family="Arial" font-size="12" font-weight="400" font-style="normal" 
>
<text fill="#666666" fill-opacity="1" stroke="none" xml:space="preserve" x="447.328" y="18" font-family="Arial" font-size="12" font-weight="400" font-style="normal" 
 >30K</text>
</g>
</g>

<g clip-path="url(#clipPath3)"><g fill="none" stroke="#666666" stroke-opacity="1" stroke-width="1" stroke-linecap="square" stroke-linejoin="bevel" transform="matrix(1,0,0,1,160,263)"
font-family="Arial" font-size="12" font-weight="400" font-style="normal" 
>
<text fill="#666666" fill-opacity="1" stroke="none" xml:space="preserve" x="523.328" y="18" font-family="Arial" font-size="12" font-weight="400" font-style="normal" 
 >35K</text>
</g>
</g>

<g clip-path="url(#clipPath3)"><g fill="none" stroke="#666666" stroke-opacity="1" stroke-width="1" stroke-linecap="square" stroke-linejoin="bevel" transform="matrix(1,0,0,1,160,263)"
font-family="Arial" font-size="12" font-weight="400" font-style="normal" 
>
<text fill="#666666" fill-opacity="1" stroke="none" xml:space="preserve" x="600.328" y="18" font-family="Arial" font-size="12" font-weight="400" font-style="normal" 
 >40K</text>
</g>
</g>

<g clip-path="url(#clipPath3)"><g fill="none" stroke="#666666" stroke-opacity="1" stroke-width="1" stroke-linecap="square" stroke-linejoin="bevel" transform="matrix(1,0,0,1,160,263)"
font-family="Arial" font-size="12" font-weight="400" font-style="normal" 
>
<text fill="#666666" fill-opacity="1" stroke="none" xml:space="preserve" x="676.328" y="18" font-family="Arial" font-size="12" font-weight="400" font-style="normal" 
 >45K</text>
</g>
</g>

<g clip-path="url(#clipPath3)"><g fill="none" stroke="#666666" stroke-opacity="1" stroke-width="1" stroke-linecap="square" stroke-linejoin="bevel" transform="matrix(1,0,0,1,160,263)"
font-family="Arial" font-size="12" font-weight="400" font-style="normal" 
>
<text fill="#666666" fill-opacity="1" stroke="none" xml:space="preserve" x="752.328" y="18" font-family="Arial" font-size="12" font-weight="400" font-style="normal" 
 >50K</text>
</g>
</g>

<g clip-path="url(#clipPath3)"><g fill="none" stroke="#666666" stroke-opacity="1" stroke-width="1" stroke-linecap="square" stroke-linejoin="bevel" transform="matrix(1,0,0,1,160,263)"
font-family="Arial" font-size="12" font-weight="400" font-style="normal" 
>
<text fill="#666666" fill-opacity="1" stroke="none" xml:space="preserve" x="829.328" y="18" font-family="Arial" font-size="12" font-weight="400" font-style="normal" 
 >55K</text>
</g>
</g>

<g clip-path="url(#clipPath3)"><g fill="none" stroke="#333333" stroke-opacity="1" stroke-width="1" stroke-linecap="square" stroke-linejoin="bevel" transform="matrix(1,0,0,1,160,263)"
font-family="Arial" font-size="12" font-weight="400" font-style="normal" 
>
<text fill="#333333" fill-opacity="1" stroke="none" xml:space="preserve" x="365" y="45" font-family="Arial" font-size="12" font-weight="400" font-style="normal" 
 >Count of glp1_indications.csv</text>
</g>
</g>

<g fill="none" stroke="#333333" stroke-opacity="1" stroke-width="1" stroke-linecap="square" stroke-linejoin="bevel" transform="matrix(1,0,0,1,160,263)"
font-family="Arial" font-size="12" font-weight="400" font-style="normal" 
>
</g>

<g clip-path="url(#clipPath4)"><g fill="none" stroke="#333333" stroke-opacity="1" stroke-width="1" stroke-linecap="square" stroke-linejoin="bevel" transform="matrix(1,0,0,1,0,63)"
font-family="Arial" font-size="12" font-weight="400" font-style="normal" 
>
</g>
</g>

<g clip-path="url(#clipPath4)"><g fill="none" stroke="#666666" stroke-opacity="1" stroke-width="1" stroke-linecap="square" stroke-linejoin="bevel" transform="matrix(1,0,0,1,0,63)"
font-family="Arial" font-size="12" font-weight="400" font-style="normal" 
>
<text fill="#666666" fill-opacity="1" stroke="none" xml:space="preserve" x="78.375" y="14" font-family="Arial" font-size="12" font-weight="400" font-style="normal" 
 >Weight control</text>
</g>
</g>

<g clip-path="url(#clipPath4)"><g fill="none" stroke="#666666" stroke-opacity="1" stroke-width="1" stroke-linecap="square" stroke-linejoin="bevel" transform="matrix(1,0,0,1,0,63)"
font-family="Arial" font-size="12" font-weight="400" font-style="normal" 
>
<text fill="#666666" fill-opacity="1" stroke="none" xml:space="preserve" x="25.7031" y="34" font-family="Arial" font-size="12" font-weight="400" font-style="normal" 
 >Type 2 diabetes mellitus</text>
</g>
</g>

<g clip-path="url(#clipPath4)"><g fill="none" stroke="#666666" stroke-opacity="1" stroke-width="1" stroke-linecap="square" stroke-linejoin="bevel" transform="matrix(1,0,0,1,0,63)"
font-family="Arial" font-size="12" font-weight="400" font-style="normal" 
>
<text fill="#666666" fill-opacity="1" stroke="none" xml:space="preserve" x="63.7188" y="54" font-family="Arial" font-size="12" font-weight="400" font-style="normal" 
 >Diabetes mellitus</text>
</g>
</g>

<g clip-path="url(#clipPath4)"><g fill="none" stroke="#666666" stroke-opacity="1" stroke-width="1" stroke-linecap="square" stroke-linejoin="bevel" transform="matrix(1,0,0,1,0,63)"
font-family="Arial" font-size="12" font-weight="400" font-style="normal" 
>
<text fill="#666666" fill-opacity="1" stroke="none" xml:space="preserve" x="9.04688" y="74" font-family="Arial" font-size="12" font-weight="400" font-style="normal" 
 >Glucose tolerance impaired</text>
</g>
</g>

<g clip-path="url(#clipPath4)"><g fill="none" stroke="#666666" stroke-opacity="1" stroke-width="1" stroke-linecap="square" stroke-linejoin="bevel" transform="matrix(1,0,0,1,0,63)"
font-family="Arial" font-size="12" font-weight="400" font-style="normal" 
>
<text fill="#666666" fill-opacity="1" stroke="none" xml:space="preserve" x="24.9844" y="94" font-family="Arial" font-size="12" font-weight="400" font-style="normal" 
 >Sleep apnoea syndrome</text>
</g>
</g>

<g clip-path="url(#clipPath4)"><g fill="none" stroke="#666666" stroke-opacity="1" stroke-width="1" stroke-linecap="square" stroke-linejoin="bevel" transform="matrix(1,0,0,1,0,63)"
font-family="Arial" font-size="12" font-weight="400" font-style="normal" 
>
<text fill="#666666" fill-opacity="1" stroke="none" xml:space="preserve" x="84.3438" y="114" font-family="Arial" font-size="12" font-weight="400" font-style="normal" 
 >Hypertension</text>
</g>
</g>

<g clip-path="url(#clipPath4)"><g fill="none" stroke="#666666" stroke-opacity="1" stroke-width="1" stroke-linecap="square" stroke-linejoin="bevel" transform="matrix(1,0,0,1,0,63)"
font-family="Arial" font-size="12" font-weight="400" font-style="normal" 
>
<text fill="#666666" fill-opacity="1" stroke="none" xml:space="preserve" x="114.344" y="134" font-family="Arial" font-size="12" font-weight="400" font-style="normal" 
 >Obesity</text>
</g>
</g>

<g clip-path="url(#clipPath4)"><g fill="none" stroke="#666666" stroke-opacity="1" stroke-width="1" stroke-linecap="square" stroke-linejoin="bevel" transform="matrix(1,0,0,1,0,63)"
font-family="Arial" font-size="12" font-weight="400" font-style="normal" 
>
<text fill="#666666" fill-opacity="1" stroke="none" xml:space="preserve" x="134.359" y="154" font-family="Arial" font-size="12" font-weight="400" font-style="normal" 
 >Null</text>
</g>
</g>

<g clip-path="url(#clipPath4)"><g fill="none" stroke="#666666" stroke-opacity="1" stroke-width="1" stroke-linecap="square" stroke-linejoin="bevel" transform="matrix(1,0,0,1,0,63)"
font-family="Arial" font-size="12" font-weight="400" font-style="normal" 
>
<text fill="#666666" fill-opacity="1" stroke="none" xml:space="preserve" x="7.6875" y="174" font-family="Arial" font-size="12" font-weight="400" font-style="normal" 
 >Blood cholesterol increased</text>
</g>
</g>

<g clip-path="url(#clipPath4)"><g fill="none" stroke="#666666" stroke-opacity="1" stroke-width="1" stroke-linecap="square" stroke-linejoin="bevel" transform="matrix(1,0,0,1,0,63)"
font-family="Arial" font-size="12" font-weight="400" font-style="normal" 
>
<text fill="#666666" fill-opacity="1" stroke="none" xml:space="preserve" x="3.01563" y="194" font-family="Arial" font-size="12" font-weight="400" font-style="normal" 
 >Obstructive sleep apnoea s..</text>
</g>
</g>

<g fill="none" stroke="#666666" stroke-opacity="1" stroke-width="1" stroke-linecap="square" stroke-linejoin="bevel" transform="matrix(1,0,0,1,0,63)"
font-family="Arial" font-size="12" font-weight="400" font-style="normal" 
>
</g>

<g clip-path="url(#clipPath4)"><g fill="none" stroke="#666666" stroke-opacity="1" stroke-width="1" stroke-linecap="square" stroke-linejoin="bevel" transform="matrix(1,0,0,1,160,63)"
font-family="Arial" font-size="12" font-weight="400" font-style="normal" 
>
</g>
</g>

<g clip-path="url(#clipPath5)"><g fill="none" stroke="#666666" stroke-opacity="1" stroke-width="1" stroke-linecap="square" stroke-linejoin="bevel" transform="matrix(1,0,0,1,160,63)"
font-family="Arial" font-size="12" font-weight="400" font-style="normal" 
>
</g>
</g>

<g clip-path="url(#clipPath6)"><g fill="none" stroke="#666666" stroke-opacity="1" stroke-width="1" stroke-linecap="square" stroke-linejoin="bevel" transform="matrix(1,0,0,1,160,63)"
font-family="Arial" font-size="12" font-weight="400" font-style="normal" 
>
</g>
</g>

<g clip-path="url(#clipPath6)"><g fill="#ffffff" fill-opacity="1" stroke="none" transform="matrix(1,0,0,1,160,63)"
font-family="Arial" font-size="12" font-weight="400" font-style="normal" 
>
<rect x="0" y="0" width="887" height="201"/>
</g>
</g>

<g clip-path="url(#clipPath6)"><g fill="#ffffff" fill-opacity="1" stroke="none" transform="matrix(1,0,0,1,160,63)"
font-family="Arial" font-size="12" font-weight="400" font-style="normal" 
>
<rect x="0" y="0" width="887" height="201"/>
</g>
</g>

<g clip-path="url(#clipPath7)"><g fill="none" stroke="#666666" stroke-opacity="1" stroke-width="1" stroke-linecap="square" stroke-linejoin="bevel" transform="matrix(1,0,0,1,160,63)"
font-family="Arial" font-size="12" font-weight="400" font-style="normal" 
>
</g>
</g>

<g clip-path="url(#clipPath7)"><g fill="#ffffff" fill-opacity="1" stroke="none" transform="matrix(1,0,0,1,160,63)"
font-family="Arial" font-size="12" font-weight="400" font-style="normal" 
>
<rect x="0" y="0" width="887" height="201"/>
</g>
</g>

<g clip-path="url(#clipPath8)"><g fill="none" stroke="#666666" stroke-opacity="1" stroke-width="1" stroke-linecap="square" stroke-linejoin="bevel" transform="matrix(1,0,0,1,160,63)"
font-family="Arial" font-size="12" font-weight="400" font-style="normal" 
>
</g>
</g>

<g clip-path="url(#clipPath9)"><g fill="none" stroke="#666666" stroke-opacity="1" stroke-width="1" stroke-linecap="square" stroke-linejoin="bevel" transform="matrix(1,0,0,1,160,63)"
font-family="Arial" font-size="12" font-weight="400" font-style="normal" 
>
</g>
</g>

<g clip-path="url(#clipPath10)"><g fill="none" stroke="#666666" stroke-opacity="1" stroke-width="1" stroke-linecap="square" stroke-linejoin="bevel" transform="matrix(1,0,0,1,160,63)"
font-family="Arial" font-size="12" font-weight="400" font-style="normal" 
>
</g>
</g>

<g clip-path="url(#clipPath11)"><g fill="none" stroke="#666666" stroke-opacity="1" stroke-width="1" stroke-linecap="square" stroke-linejoin="bevel" transform="matrix(1,0,0,1,160,63)"
font-family="Arial" font-size="12" font-weight="400" font-style="normal" 
>
</g>
</g>

<g clip-path="url(#clipPath11)"><g fill="#ffffff" fill-opacity="1" stroke="none" transform="matrix(1,0,0,1,160,63)"
font-family="Arial" font-size="12" font-weight="400" font-style="normal" 
>
<rect x="0" y="0" width="887" height="201"/>
</g>
</g>

<g clip-path="url(#clipPath12)"><g fill="none" stroke="#666666" stroke-opacity="1" stroke-width="1" stroke-linecap="square" stroke-linejoin="bevel" transform="matrix(1,0,0,1,160,63)"
font-family="Arial" font-size="12" font-weight="400" font-style="normal" 
>
</g>
</g>

<g clip-path="url(#clipPath13)"><g fill="none" stroke="#666666" stroke-opacity="1" stroke-width="1" stroke-linecap="square" stroke-linejoin="bevel" transform="matrix(1,0,0,1,160,63)"
font-family="Arial" font-size="12" font-weight="400" font-style="normal" 
>
</g>
</g>

<g clip-path="url(#clipPath13)"><g fill="none" stroke="#f2f2f2" stroke-opacity="1" stroke-width="1" stroke-linecap="square" stroke-linejoin="bevel" transform="matrix(1,0,0,1,160,63)"
font-family="Arial" font-size="12" font-weight="400" font-style="normal" 
>
<polyline fill="none" vector-effect="none" points="76,199 76,0 " />
<polyline fill="none" vector-effect="none" points="153,199 153,0 " />
<polyline fill="none" vector-effect="none" points="229,199 229,0 " />
<polyline fill="none" vector-effect="none" points="305,199 305,0 " />
<polyline fill="none" vector-effect="none" points="382,199 382,0 " />
<polyline fill="none" vector-effect="none" points="458,199 458,0 " />
<polyline fill="none" vector-effect="none" points="534,199 534,0 " />
<polyline fill="none" vector-effect="none" points="611,199 611,0 " />
<polyline fill="none" vector-effect="none" points="687,199 687,0 " />
<polyline fill="none" vector-effect="none" points="763,199 763,0 " />
<polyline fill="none" vector-effect="none" points="840,199 840,0 " />
</g>
</g>

<g clip-path="url(#clipPath14)"><g fill="none" stroke="#f2f2f2" stroke-opacity="1" stroke-width="1" stroke-linecap="square" stroke-linejoin="bevel" transform="matrix(1,0,0,1,160,63)"
font-family="Arial" font-size="12" font-weight="400" font-style="normal" 
>
</g>
</g>

<g clip-path="url(#clipPath15)"><g fill="none" stroke="#f2f2f2" stroke-opacity="1" stroke-width="1" stroke-linecap="square" stroke-linejoin="bevel" transform="matrix(1,0,0,1,160,63)"
font-family="Arial" font-size="12" font-weight="400" font-style="normal" 
>
</g>
</g>

<g clip-path="url(#clipPath15)"><g fill="none" stroke="#cbcbcb" stroke-opacity="1" stroke-dasharray="1,2" stroke-dashoffset="0" stroke-width="1" stroke-linecap="square" stroke-linejoin="bevel" transform="matrix(1,0,0,1,160,63)"
font-family="Arial" font-size="12" font-weight="400" font-style="normal" 
>
<polyline fill="none" vector-effect="none" points="0,199 0,0 " />
</g>
</g>

<g clip-path="url(#clipPath16)"><g fill="none" stroke="#cbcbcb" stroke-opacity="1" stroke-dasharray="1,2" stroke-dashoffset="0" stroke-width="1" stroke-linecap="square" stroke-linejoin="bevel" transform="matrix(1,0,0,1,160,63)"
font-family="Arial" font-size="12" font-weight="400" font-style="normal" 
>
</g>
</g>

<g clip-path="url(#clipPath17)"><g fill="none" stroke="#cbcbcb" stroke-opacity="1" stroke-dasharray="1,2" stroke-dashoffset="0" stroke-width="1" stroke-linecap="square" stroke-linejoin="bevel" transform="matrix(1,0,0,1,160,63)"
font-family="Arial" font-size="12" font-weight="400" font-style="normal" 
>
</g>
</g>

<g clip-path="url(#clipPath18)"><g fill="none" stroke="#cbcbcb" stroke-opacity="1" stroke-dasharray="1,2" stroke-dashoffset="0" stroke-width="1" stroke-linecap="square" stroke-linejoin="bevel" transform="matrix(1,0,0,1,160,63)"
font-family="Arial" font-size="12" font-weight="400" font-style="normal" 
>
</g>
</g>

<g clip-path="url(#clipPath19)"><g fill="none" stroke="#cbcbcb" stroke-opacity="1" stroke-dasharray="1,2" stroke-dashoffset="0" stroke-width="1" stroke-linecap="square" stroke-linejoin="bevel" transform="matrix(1,0,0,1,160,63)"
font-family="Arial" font-size="12" font-weight="400" font-style="normal" 
>
</g>
</g>

<g clip-path="url(#clipPath20)"><g fill="none" stroke="#cbcbcb" stroke-opacity="1" stroke-dasharray="1,2" stroke-dashoffset="0" stroke-width="1" stroke-linecap="square" stroke-linejoin="bevel" transform="matrix(1,0,0,1,160,63)"
font-family="Arial" font-size="12" font-weight="400" font-style="normal" 
>
</g>
</g>

<g clip-path="url(#clipPath21)"><g fill="none" stroke="#cbcbcb" stroke-opacity="1" stroke-dasharray="1,2" stroke-dashoffset="0" stroke-width="1" stroke-linecap="square" stroke-linejoin="bevel" transform="matrix(1,0,0,1,160,63)"
font-family="Arial" font-size="12" font-weight="400" font-style="normal" 
>
</g>
</g>

<g clip-path="url(#clipPath22)"><g fill="none" stroke="#cbcbcb" stroke-opacity="1" stroke-dasharray="1,2" stroke-dashoffset="0" stroke-width="1" stroke-linecap="square" stroke-linejoin="bevel" transform="matrix(1,0,0,1,160,63)"
font-family="Arial" font-size="12" font-weight="400" font-style="normal" 
>
</g>
</g>

<g clip-path="url(#clipPath23)"><g fill="none" stroke="#cbcbcb" stroke-opacity="1" stroke-dasharray="1,2" stroke-dashoffset="0" stroke-width="1" stroke-linecap="square" stroke-linejoin="bevel" transform="matrix(1,0,0,1,160,63)"
font-family="Arial" font-size="12" font-weight="400" font-style="normal" 
>
</g>
</g>

<g clip-path="url(#clipPath24)"><g fill="none" stroke="#cbcbcb" stroke-opacity="1" stroke-dasharray="1,2" stroke-dashoffset="0" stroke-width="1" stroke-linecap="square" stroke-linejoin="bevel" transform="matrix(1,0,0,1,160,63)"
font-family="Arial" font-size="12" font-weight="400" font-style="normal" 
>
</g>
</g>

<g clip-path="url(#clipPath24)"><g fill="#4e79a7" fill-opacity="1" stroke="none" transform="matrix(1,0,0,1,160,63)"
font-family="Arial" font-size="12" font-weight="400" font-style="normal" 
>
<rect x="0" y="183" width="22" height="15"/>
</g>
</g>

<g clip-path="url(#clipPath24)"><g fill="#4e79a7" fill-opacity="1" stroke="none" transform="matrix(1,0,0,1,160,63)"
font-family="Arial" font-size="12" font-weight="400" font-style="normal" 
>
<rect x="0" y="163" width="25" height="15"/>
</g>
</g>

<g clip-path="url(#clipPath24)"><g fill="#4e79a7" fill-opacity="1" stroke="none" transform="matrix(1,0,0,1,160,63)"
font-family="Arial" font-size="12" font-weight="400" font-style="normal" 
>
<rect x="0" y="143" width="33" height="15"/>
</g>
</g>

<g clip-path="url(#clipPath24)"><g fill="#4e79a7" fill-opacity="1" stroke="none" transform="matrix(1,0,0,1,160,63)"
font-family="Arial" font-size="12" font-weight="400" font-style="normal" 
>
<rect x="0" y="123" width="39" height="15"/>
</g>
</g>

<g clip-path="url(#clipPath24)"><g fill="#4e79a7" fill-opacity="1" stroke="none" transform="matrix(1,0,0,1,160,63)"
font-family="Arial" font-size="12" font-weight="400" font-style="normal" 
>
<rect x="0" y="103" width="43" height="15"/>
</g>
</g>

<g clip-path="url(#clipPath24)"><g fill="#4e79a7" fill-opacity="1" stroke="none" transform="matrix(1,0,0,1,160,63)"
font-family="Arial" font-size="12" font-weight="400" font-style="normal" 
>
<rect x="0" y="83" width="57" height="15"/>
</g>
</g>

<g clip-path="url(#clipPath24)"><g fill="#4e79a7" fill-opacity="1" stroke="none" transform="matrix(1,0,0,1,160,63)"
font-family="Arial" font-size="12" font-weight="400" font-style="normal" 
>
<rect x="0" y="63" width="64" height="15"/>
</g>
</g>

<g clip-path="url(#clipPath24)"><g fill="#4e79a7" fill-opacity="1" stroke="none" transform="matrix(1,0,0,1,160,63)"
font-family="Arial" font-size="12" font-weight="400" font-style="normal" 
>
<rect x="0" y="43" width="209" height="15"/>
</g>
</g>

<g clip-path="url(#clipPath24)"><g fill="#4e79a7" fill-opacity="1" stroke="none" transform="matrix(1,0,0,1,160,63)"
font-family="Arial" font-size="12" font-weight="400" font-style="normal" 
>
<rect x="0" y="23" width="572" height="15"/>
</g>
</g>

<g clip-path="url(#clipPath24)"><g fill="#4e79a7" fill-opacity="1" stroke="none" transform="matrix(1,0,0,1,160,63)"
font-family="Arial" font-size="12" font-weight="400" font-style="normal" 
>
<rect x="0" y="3" width="844" height="15"/>
</g>
</g>

<g clip-path="url(#clipPath25)"><g fill="#4e79a7" fill-opacity="1" stroke="none" transform="matrix(1,0,0,1,160,63)"
font-family="Arial" font-size="12" font-weight="400" font-style="normal" 
>
</g>
</g>

<g clip-path="url(#clipPath26)"><g fill="#4e79a7" fill-opacity="1" stroke="none" transform="matrix(1,0,0,1,160,63)"
font-family="Arial" font-size="12" font-weight="400" font-style="normal" 
>
</g>
</g>

<g clip-path="url(#clipPath27)"><g fill="#4e79a7" fill-opacity="1" stroke="none" transform="matrix(1,0,0,1,160,63)"
font-family="Arial" font-size="12" font-weight="400" font-style="normal" 
>
</g>
</g>

<g clip-path="url(#clipPath28)"><g fill="#4e79a7" fill-opacity="1" stroke="none" transform="matrix(1,0,0,1,160,63)"
font-family="Arial" font-size="12" font-weight="400" font-style="normal" 
>
</g>
</g>

<g clip-path="url(#clipPath29)"><g fill="#4e79a7" fill-opacity="1" stroke="none" transform="matrix(1,0,0,1,160,63)"
font-family="Arial" font-size="12" font-weight="400" font-style="normal" 
>
</g>
</g>

<g clip-path="url(#clipPath30)"><g fill="#4e79a7" fill-opacity="1" stroke="none" transform="matrix(1,0,0,1,160,63)"
font-family="Arial" font-size="12" font-weight="400" font-style="normal" 
>
</g>
</g>

<g clip-path="url(#clipPath31)"><g fill="#4e79a7" fill-opacity="1" stroke="none" transform="matrix(1,0,0,1,160,63)"
font-family="Arial" font-size="12" font-weight="400" font-style="normal" 
>
</g>
</g>

<g clip-path="url(#clipPath32)"><g fill="#4e79a7" fill-opacity="1" stroke="none" transform="matrix(1,0,0,1,160,63)"
font-family="Arial" font-size="12" font-weight="400" font-style="normal" 
>
</g>
</g>

<g clip-path="url(#clipPath33)"><g fill="#4e79a7" fill-opacity="1" stroke="none" transform="matrix(1,0,0,1,160,63)"
font-family="Arial" font-size="12" font-weight="400" font-style="normal" 
>
</g>
</g>

<g clip-path="url(#clipPath34)"><g fill="#4e79a7" fill-opacity="1" stroke="none" transform="matrix(1,0,0,1,160,63)"
font-family="Arial" font-size="12" font-weight="400" font-style="normal" 
>
</g>
</g>

<g clip-path="url(#clipPath35)"><g fill="#4e79a7" fill-opacity="1" stroke="none" transform="matrix(1,0,0,1,160,63)"
font-family="Arial" font-size="12" font-weight="400" font-style="normal" 
>
</g>
</g>

<g clip-path="url(#clipPath36)"><g fill="#4e79a7" fill-opacity="1" stroke="none" transform="matrix(1,0,0,1,160,63)"
font-family="Arial" font-size="12" font-weight="400" font-style="normal" 
>
</g>
</g>

<g clip-path="url(#clipPath37)"><g fill="#4e79a7" fill-opacity="1" stroke="none" transform="matrix(1,0,0,1,160,63)"
font-family="Arial" font-size="12" font-weight="400" font-style="normal" 
>
</g>
</g>

<g clip-path="url(#clipPath38)"><g fill="#4e79a7" fill-opacity="1" stroke="none" transform="matrix(1,0,0,1,160,63)"
font-family="Arial" font-size="12" font-weight="400" font-style="normal" 
>
</g>
</g>

<g clip-path="url(#clipPath39)"><g fill="#4e79a7" fill-opacity="1" stroke="none" transform="matrix(1,0,0,1,160,63)"
font-family="Arial" font-size="12" font-weight="400" font-style="normal" 
>
</g>
</g>

<g clip-path="url(#clipPath40)"><g fill="#4e79a7" fill-opacity="1" stroke="none" transform="matrix(1,0,0,1,160,63)"
font-family="Arial" font-size="12" font-weight="400" font-style="normal" 
>
</g>
</g>

<g clip-path="url(#clipPath41)"><g fill="#4e79a7" fill-opacity="1" stroke="none" transform="matrix(1,0,0,1,160,63)"
font-family="Arial" font-size="12" font-weight="400" font-style="normal" 
>
</g>
</g>

<g clip-path="url(#clipPath42)"><g fill="#4e79a7" fill-opacity="1" stroke="none" transform="matrix(1,0,0,1,160,63)"
font-family="Arial" font-size="12" font-weight="400" font-style="normal" 
>
</g>
</g>

<g clip-path="url(#clipPath43)"><g fill="#4e79a7" fill-opacity="1" stroke="none" transform="matrix(1,0,0,1,160,63)"
font-family="Arial" font-size="12" font-weight="400" font-style="normal" 
>
</g>
</g>

<g clip-path="url(#clipPath44)"><g fill="#4e79a7" fill-opacity="1" stroke="none" transform="matrix(1,0,0,1,160,63)"
font-family="Arial" font-size="12" font-weight="400" font-style="normal" 
>
</g>
</g>

<g clip-path="url(#clipPath45)"><g fill="#4e79a7" fill-opacity="1" stroke="none" transform="matrix(1,0,0,1,160,63)"
font-family="Arial" font-size="12" font-weight="400" font-style="normal" 
>
</g>
</g>

<g clip-path="url(#clipPath46)"><g fill="#4e79a7" fill-opacity="1" stroke="none" transform="matrix(1,0,0,1,160,63)"
font-family="Arial" font-size="12" font-weight="400" font-style="normal" 
>
</g>
</g>

<g clip-path="url(#clipPath47)"><g fill="#4e79a7" fill-opacity="1" stroke="none" transform="matrix(1,0,0,1,160,63)"
font-family="Arial" font-size="12" font-weight="400" font-style="normal" 
>
</g>
</g>

<g clip-path="url(#clipPath48)"><g fill="#4e79a7" fill-opacity="1" stroke="none" transform="matrix(1,0,0,1,160,63)"
font-family="Arial" font-size="12" font-weight="400" font-style="normal" 
>
</g>
</g>

<g clip-path="url(#clipPath49)"><g fill="#4e79a7" fill-opacity="1" stroke="none" transform="matrix(1,0,0,1,160,63)"
font-family="Arial" font-size="12" font-weight="400" font-style="normal" 
>
</g>
</g>

<g clip-path="url(#clipPath50)"><g fill="#4e79a7" fill-opacity="1" stroke="none" transform="matrix(1,0,0,1,160,63)"
font-family="Arial" font-size="12" font-weight="400" font-style="normal" 
>
</g>
</g>

<g clip-path="url(#clipPath51)"><g fill="#4e79a7" fill-opacity="1" stroke="none" transform="matrix(1,0,0,1,160,63)"
font-family="Arial" font-size="12" font-weight="400" font-style="normal" 
>
</g>
</g>

<g clip-path="url(#clipPath52)"><g fill="#4e79a7" fill-opacity="1" stroke="none" transform="matrix(1,0,0,1,160,63)"
font-family="Arial" font-size="12" font-weight="400" font-style="normal" 
>
</g>
</g>

<g clip-path="url(#clipPath53)"><g fill="#4e79a7" fill-opacity="1" stroke="none" transform="matrix(1,0,0,1,160,63)"
font-family="Arial" font-size="12" font-weight="400" font-style="normal" 
>
</g>
</g>

<g clip-path="url(#clipPath54)"><g fill="#4e79a7" fill-opacity="1" stroke="none" transform="matrix(1,0,0,1,160,63)"
font-family="Arial" font-size="12" font-weight="400" font-style="normal" 
>
</g>
</g>

<g clip-path="url(#clipPath55)"><g fill="#4e79a7" fill-opacity="1" stroke="none" transform="matrix(1,0,0,1,160,63)"
font-family="Arial" font-size="12" font-weight="400" font-style="normal" 
>
</g>
</g>

<g clip-path="url(#clipPath55)"><g fill="none" stroke="#f5f5f5" stroke-opacity="1" stroke-width="1" stroke-linecap="square" stroke-linejoin="bevel" transform="matrix(1,0,0,1,160,63)"
font-family="Arial" font-size="12" font-weight="400" font-style="normal" 
>
<polyline fill="none" vector-effect="none" points="0,200 886,200 " />
<polyline fill="none" vector-effect="none" points="0,0 0,200 " />
</g>
</g>

<g clip-path="url(#clipPath56)"><g fill="none" stroke="#f5f5f5" stroke-opacity="1" stroke-width="1" stroke-linecap="square" stroke-linejoin="bevel" transform="matrix(1,0,0,1,160,63)"
font-family="Arial" font-size="12" font-weight="400" font-style="normal" 
>
</g>
</g>

<g fill="none" stroke="#f5f5f5" stroke-opacity="1" stroke-width="1" stroke-linecap="square" stroke-linejoin="bevel" transform="matrix(1,0,0,1,160,63)"
font-family="Arial" font-size="12" font-weight="400" font-style="normal" 
>
</g>

<g fill="none" stroke="#333333" stroke-opacity="1" stroke-width="1" stroke-linecap="square" stroke-linejoin="bevel" transform="matrix(1,0,0,1,0,0)"
font-family="Arial" font-size="20" font-weight="400" font-style="normal" 
>
<text fill="#333333" fill-opacity="1" stroke="none" xml:space="preserve" x="4" y="27" font-family="Arial" font-size="20" font-weight="400" font-style="normal" 
 >GLP1 Indications</text>
</g>

<g fill="none" stroke="#666666" stroke-opacity="1" stroke-width="1" stroke-linecap="square" stroke-linejoin="bevel" transform="matrix(1,0,0,1,0,0)"
font-family="Arial" font-size="12" font-weight="400" font-style="normal" 
>
<text fill="#666666" fill-opacity="1" stroke="none" xml:space="preserve" x="0" y="337" font-family="Arial" font-size="12" font-weight="400" font-style="normal" 
 >Count of glp1_indications.csv for each Indi Pt. The view is filtered on Indi Pt, which has multiple members selected.</text>
</g>
</g>
</svg>
