<svg class="main-svg" xmlns="http://www.w3.org/2000/svg" xmlns:xlink="http://www.w3.org/1999/xlink" width="620" height="480" style="" viewBox="0 0 620 480"><rect x="0" y="0" width="620" height="480" style="fill: rgb(255, 255, 255); fill-opacity: 1;"/><defs id="defs-7d457e"><g class="clips"/><g class="gradients"/><g class="patterns"/></defs><g class="bglayer"/><g class="layer-below"><g class="imagelayer"/><g class="shapelayer"/></g><g class="cartesianlayer"/><g class="polarlayer"/><g class="smithlayer"/><g class="ternarylayer"/><g class="geolayer"/><g class="funnelarealayer"/><g class="pielayer"><g class="trace" stroke-linejoin="round" style="opacity: 1;"><g class="slice"><path class="surface" d="M247.1324023142971,174.99545224658408a101.75000000000001,101.75000000000001 0 1 0 62.867597685702876,-21.745452246584094l0,-83.24999999999999a185,185 0 1 1 -114.30472306491431,39.53718590288017Z" style="pointer-events: none; fill: rgb(31, 58, 95); fill-opacity: 1; stroke-width: 0; stroke: rgb(68, 68, 68); stroke-opacity: 1;"/><g class="slicetext"><text data-notex="1" class="slicetext" transform="translate(356.86789478064765,387.8484041542655)" text-anchor="middle" x="0" y="0" style="font-family: Inter, system-ui, sans-serif; font-size: 11px; fill: rgb(255, 255, 255); fill-opacity: 1; white-space: pre;"><tspan class="line" dy="0em" x="0" y="0">Consumer</tspan><tspan class="line" dy="1.3em" x="0" y="0">89.4%</tspan></text></g></g><g class="slice"><path class="surface" d="M310,153.25a101.75000000000001,101.75000000000001 0 0 0 -26.467852481202613,3.5027848484584485l-21.655515666438497,-80.38408512398854a185,185 0 0 1 48.12336814764111,-6.368699724469906Z" style="pointer-events: none; fill: rgb(90, 124, 166); fill-opacity: 1; stroke-width: 0; stroke: rgb(68, 68, 68); stroke-opacity: 1;"/><g class="slicetext"><text data-notex="1" class="slicetext" transform="translate(292.37078307555083,101.59170001531304)rotate(82.46122134064183)" text-anchor="middle" x="0" y="0" style="font-family: Inter, system-ui, sans-serif; font-size: 11px; fill: rgb(255, 255, 255); fill-opacity: 1; white-space: pre;"><tspan class="line" dy="0em" x="0" y="0">Physician</tspan><tspan class="line" dy="1.3em" x="0" y="0">4.19%</tspan></text></g></g><g class="slice"><path class="surface" d="M283.5321475187974,156.75278484845845a101.75000000000001,101.75000000000001 0 0 0 -20.452793822574513,7.961471811655115l-38.38961970309037,-73.87015364172525a185,185 0 0 1 37.186897859226384,-14.47540329391839Z" style="pointer-events: none; fill: rgb(143, 169, 200); fill-opacity: 1; stroke-width: 0; stroke: rgb(68, 68, 68); stroke-opacity: 1;"/><g class="slicetext"><text data-notex="1" class="slicetext" transform="translate(185.30116795710563,15.84511933267045)" text-anchor="middle" x="0" y="0" style="font-family: Inter, system-ui, sans-serif; font-size: 11px; fill: rgb(255, 255, 255); fill-opacity: 1; white-space: pre;"><tspan class="line" dy="0em" x="0" y="0">Health Professional</tspan><tspan class="line" dy="1.3em" x="0" y="0">3.44%</tspan></text></g><path class="textline" stroke-width="1.375" d="M242.89174412898063,82.6008062839336V18.49502167642045h-6.824951171875" fill="none" style="stroke: rgb(255, 255, 255); stroke-opacity: 1;"/></g><g class="slice"><path class="surface" d="M263.0793536962229,164.71425666011356a101.75000000000001,101.75000000000001 0 0 0 -7.751874119929162,4.472119651573275l-44.73206216485059,-70.2111466540744a185,185 0 0 1 14.094316581689384,-8.131126639224135Z" style="pointer-events: none; fill: rgb(200, 74, 61); fill-opacity: 1; stroke-width: 0; stroke: rgb(68, 68, 68); stroke-opacity: 1;"/><g class="slicetext"><text data-notex="1" class="slicetext" transform="translate(192.1344350197004,43.14492402017045)" text-anchor="middle" x="0" y="0" style="font-family: Inter, system-ui, sans-serif; font-size: 11px; fill: rgb(255, 255, 255); fill-opacity: 1; white-space: pre;"><tspan class="line" dy="0em" x="0" y="0">Lawyer</tspan><tspan class="line" dy="1.3em" x="0" y="0">1.4%</tspan></text></g><path class="textline" stroke-width="1.375" d="M217.5531361915754,94.75463385175036V45.79482636392045h-6.824951171875" fill="none" style="stroke: rgb(255, 255, 255); stroke-opacity: 1;"/></g><g class="slice"><path class="surface" d="M255.3274795762937,169.18637631168684a101.75000000000001,101.75000000000001 0 0 0 -7.305574760670358,5.118033862621012l-50.70935060539907,-66.02366440283903a185,185 0 0 1 13.28286320121883,-9.305516113856385Z" style="pointer-events: none; fill: rgb(107, 107, 107); fill-opacity: 1; stroke-width: 0; stroke: rgb(68, 68, 68); stroke-opacity: 1;"/><g class="slicetext"><text data-notex="1" class="slicetext" transform="translate(167.68326407031532,70.44472870767045)" text-anchor="middle" x="0" y="0" style="font-family: Inter, system-ui, sans-serif; font-size: 11px; fill: rgb(255, 255, 255); fill-opacity: 1; white-space: pre;"><tspan class="line" dy="0em" x="0" y="0">Pharmacist</tspan><tspan class="line" dy="1.3em" x="0" y="0">1.4%</tspan></text></g><path class="textline" stroke-width="1.375" d="M203.85196524219032,103.48236169655087V73.09463105142045h-6.824951171875" fill="none" style="stroke: rgb(255, 255, 255); stroke-opacity: 1;"/></g><g class="slice"><path class="surface" d="M248.02190481562337,174.30441017430786a101.75000000000001,101.75000000000001 0 0 0 -0.8895025013261858,0.6910420722762126l-51.437125379211395,-65.45826634370394a185,185 0 0 1 1.6172772751385196,-1.2564401314112956Z" style="pointer-events: none; fill: rgb(181, 181, 181); fill-opacity: 1; stroke-width: 0; stroke: rgb(68, 68, 68); stroke-opacity: 1;"/><g class="slicetext"><text data-notex="1" class="slicetext" transform="translate(165.38035076182132,97.74453339517045)" text-anchor="middle" x="0" y="0" style="font-family: Inter, system-ui, sans-serif; font-size: 11px; fill: rgb(255, 255, 255); fill-opacity: 1; white-space: pre;"><tspan class="line" dy="0em" x="0" y="0">Unknown</tspan><tspan class="line" dy="1.3em" x="0" y="0">0.176%</tspan></text></g></g></g></g><g class="iciclelayer"/><g class="treemaplayer"/><g class="sunburstlayer"/><g class="glimages"/><defs id="topdefs-7d457e"><g class="clips"/></defs><g class="layer-above"><g class="imagelayer"/><g class="shapelayer"/></g><g class="infolayer"><g class="g-gtitle"><text class="gtitle" x="0" y="19.200000000000045" text-anchor="start" dy="0.7em" style="opacity: 1; font-family: Inter, system-ui, sans-serif; font-size: 16px; fill: rgb(31, 58, 95); fill-opacity: 1; white-space: pre;">Who is reporting these cases?</text></g></g></svg>